<svg id="visual" viewBox="0 0 900 600" width="900" height="600" xmlns="http://www.w3.org/2000/svg" xmlns:xlink="http://www.w3.org/1999/xlink" version="1.1"><rect x="0" y="0" width="900" height="600" fill="#000000"></rect><path d="M0 204L21.5 214.7C43 225.3 86 246.7 128.8 260.3C171.7 274 214.3 280 257.2 290.7C300 301.3 343 316.7 385.8 308.8C428.7 301 471.3 270 514.2 271.8C557 273.7 600 308.3 642.8 321.8C685.7 335.3 728.3 327.7 771.2 308.8C814 290 857 260 878.5 245L900 230L900 601L878.5 601C857 601 814 601 771.2 601C728.3 601 685.7 601 642.8 601C600 601 557 601 514.2 601C471.3 601 428.7 601 385.8 601C343 601 300 601 257.2 601C214.3 601 171.7 601 128.8 601C86 601 43 601 21.5 601L0 601Z" fill="#ff6400"></path><path d="M0 246L21.5 268.2C43 290.3 86 334.7 128.8 349.5C171.7 364.3 214.3 349.7 257.2 330.2C300 310.7 343 286.3 385.8 287.5C428.7 288.7 471.3 315.3 514.2 330.8C557 346.3 600 350.7 642.8 350.7C685.7 350.7 728.3 346.3 771.2 340.8C814 335.3 857 328.7 878.5 325.3L900 322L900 601L878.5 601C857 601 814 601 771.2 601C728.3 601 685.7 601 642.8 601C600 601 557 601 514.2 601C471.3 601 428.7 601 385.8 601C343 601 300 601 257.2 601C214.3 601 171.7 601 128.8 601C86 601 43 601 21.5 601L0 601Z" fill="#ff4e57"></path><path d="M0 323L21.5 327.2C43 331.3 86 339.7 128.8 333.2C171.7 326.7 214.3 305.3 257.2 316.2C300 327 343 370 385.8 391.8C428.7 413.7 471.3 414.3 514.2 397.5C557 380.7 600 346.3 642.8 345C685.7 343.7 728.3 375.3 771.2 375.3C814 375.3 857 343.7 878.5 327.8L900 312L900 601L878.5 601C857 601 814 601 771.2 601C728.3 601 685.7 601 642.8 601C600 601 557 601 514.2 601C471.3 601 428.7 601 385.8 601C343 601 300 601 257.2 601C214.3 601 171.7 601 128.8 601C86 601 43 601 21.5 601L0 601Z" fill="#ff4f93"></path><path d="M0 442L21.5 423C43 404 86 366 128.8 354.8C171.7 343.7 214.3 359.3 257.2 373.2C300 387 343 399 385.8 399.2C428.7 399.3 471.3 387.7 514.2 381C557 374.3 600 372.7 642.8 377.7C685.7 382.7 728.3 394.3 771.2 389.2C814 384 857 362 878.5 351L900 340L900 601L878.5 601C857 601 814 601 771.2 601C728.3 601 685.7 601 642.8 601C600 601 557 601 514.2 601C471.3 601 428.7 601 385.8 601C343 601 300 601 257.2 601C214.3 601 171.7 601 128.8 601C86 601 43 601 21.5 601L0 601Z" fill="#ff67c9"></path><path d="M0 448L21.5 450.8C43 453.7 86 459.3 128.8 450.8C171.7 442.3 214.3 419.7 257.2 410.2C300 400.7 343 404.3 385.8 405.3C428.7 406.3 471.3 404.7 514.2 414.7C557 424.7 600 446.3 642.8 452.8C685.7 459.3 728.3 450.7 771.2 440.5C814 430.3 857 418.7 878.5 412.8L900 407L900 601L878.5 601C857 601 814 601 771.2 601C728.3 601 685.7 601 642.8 601C600 601 557 601 514.2 601C471.3 601 428.7 601 385.8 601C343 601 300 601 257.2 601C214.3 601 171.7 601 128.8 601C86 601 43 601 21.5 601L0 601Z" fill="#d784f2"></path><path d="M0 502L21.5 497C43 492 86 482 128.8 469.3C171.7 456.7 214.3 441.3 257.2 446.5C300 451.7 343 477.3 385.8 485.3C428.7 493.3 471.3 483.7 514.2 479.8C557 476 600 478 642.8 474C685.7 470 728.3 460 771.2 463C814 466 857 482 878.5 490L900 498L900 601L878.5 601C857 601 814 601 771.2 601C728.3 601 685.7 601 642.8 601C600 601 557 601 514.2 601C471.3 601 428.7 601 385.8 601C343 601 300 601 257.2 601C214.3 601 171.7 601 128.8 601C86 601 43 601 21.5 601L0 601Z" fill="#9e9eff"></path><path d="M0 499L21.5 497.3C43 495.7 86 492.3 128.8 487.5C171.7 482.7 214.3 476.3 257.2 473.2C300 470 343 470 385.8 474.3C428.7 478.7 471.3 487.3 514.2 497.2C557 507 600 518 642.8 521.8C685.7 525.7 728.3 522.3 771.2 516C814 509.7 857 500.3 878.5 495.7L900 491L900 601L878.5 601C857 601 814 601 771.2 601C728.3 601 685.7 601 642.8 601C600 601 557 601 514.2 601C471.3 601 428.7 601 385.8 601C343 601 300 601 257.2 601C214.3 601 171.7 601 128.8 601C86 601 43 601 21.5 601L0 601Z" fill="#5db0ff"></path><path d="M0 546L21.5 547.5C43 549 86 552 128.8 556.7C171.7 561.3 214.3 567.7 257.2 569.8C300 572 343 570 385.8 568.5C428.7 567 471.3 566 514.2 561.5C557 557 600 549 642.8 548C685.7 547 728.3 553 771.2 555.3C814 557.7 857 556.3 878.5 555.7L900 555L900 601L878.5 601C857 601 814 601 771.2 601C728.3 601 685.7 601 642.8 601C600 601 557 601 514.2 601C471.3 601 428.7 601 385.8 601C343 601 300 601 257.2 601C214.3 601 171.7 601 128.8 601C86 601 43 601 21.5 601L0 601Z" fill="#0ebdff"></path></svg>