<svg id="visual" viewBox="0 0 900 600" width="900" height="600" xmlns="http://www.w3.org/2000/svg" xmlns:xlink="http://www.w3.org/1999/xlink" version="1.1"><rect x="0" y="0" width="900" height="600" fill="#f9f9f9"></rect><path d="M0 236L21.5 254C43 272 86 308 128.8 311.8C171.7 315.7 214.3 287.3 257.2 286C300 284.7 343 310.3 385.8 321.2C428.7 332 471.3 328 514.2 327C557 326 600 328 642.8 333.2C685.7 338.3 728.3 346.7 771.2 336C814 325.3 857 295.7 878.5 280.8L900 266L900 601L878.5 601C857 601 814 601 771.2 601C728.3 601 685.7 601 642.8 601C600 601 557 601 514.2 601C471.3 601 428.7 601 385.8 601C343 601 300 601 257.2 601C214.3 601 171.7 601 128.8 601C86 601 43 601 21.5 601L0 601Z" fill="#faf169"></path><path d="M0 263L21.5 266.3C43 269.7 86 276.3 128.8 298.2C171.7 320 214.3 357 257.2 355.5C300 354 343 314 385.8 311.7C428.7 309.3 471.3 344.7 514.2 359.2C557 373.7 600 367.3 642.8 354.2C685.7 341 728.3 321 771.2 315.7C814 310.3 857 319.7 878.5 324.3L900 329L900 601L878.5 601C857 601 814 601 771.2 601C728.3 601 685.7 601 642.8 601C600 601 557 601 514.2 601C471.3 601 428.7 601 385.8 601C343 601 300 601 257.2 601C214.3 601 171.7 601 128.8 601C86 601 43 601 21.5 601L0 601Z" fill="#d1f475"></path><path d="M0 299L21.5 304.7C43 310.3 86 321.7 128.8 327.2C171.7 332.7 214.3 332.3 257.2 338C300 343.7 343 355.3 385.8 369C428.7 382.7 471.3 398.3 514.2 387.3C557 376.3 600 338.7 642.8 325.2C685.7 311.7 728.3 322.3 771.2 334.7C814 347 857 361 878.5 368L900 375L900 601L878.5 601C857 601 814 601 771.2 601C728.3 601 685.7 601 642.8 601C600 601 557 601 514.2 601C471.3 601 428.7 601 385.8 601C343 601 300 601 257.2 601C214.3 601 171.7 601 128.8 601C86 601 43 601 21.5 601L0 601Z" fill="#a8f488"></path><path d="M0 396L21.5 392.2C43 388.3 86 380.7 128.8 385.3C171.7 390 214.3 407 257.2 401.2C300 395.3 343 366.7 385.8 352.8C428.7 339 471.3 340 514.2 341.7C557 343.3 600 345.7 642.8 358.8C685.7 372 728.3 396 771.2 406.8C814 417.7 857 415.3 878.5 414.2L900 413L900 601L878.5 601C857 601 814 601 771.2 601C728.3 601 685.7 601 642.8 601C600 601 557 601 514.2 601C471.3 601 428.7 601 385.8 601C343 601 300 601 257.2 601C214.3 601 171.7 601 128.8 601C86 601 43 601 21.5 601L0 601Z" fill="#7df29f"></path><path d="M0 375L21.5 381.2C43 387.3 86 399.7 128.8 407.3C171.7 415 214.3 418 257.2 412.5C300 407 343 393 385.8 389.2C428.7 385.3 471.3 391.7 514.2 406.7C557 421.7 600 445.3 642.8 455C685.7 464.7 728.3 460.3 771.2 446.8C814 433.3 857 410.7 878.5 399.3L900 388L900 601L878.5 601C857 601 814 601 771.2 601C728.3 601 685.7 601 642.8 601C600 601 557 601 514.2 601C471.3 601 428.7 601 385.8 601C343 601 300 601 257.2 601C214.3 601 171.7 601 128.8 601C86 601 43 601 21.5 601L0 601Z" fill="#49eeb7"></path><path d="M0 402L21.5 406.8C43 411.7 86 421.3 128.8 424.2C171.7 427 214.3 423 257.2 431C300 439 343 459 385.8 456.5C428.7 454 471.3 429 514.2 429.5C557 430 600 456 642.8 457.5C685.7 459 728.3 436 771.2 429.3C814 422.7 857 432.3 878.5 437.2L900 442L900 601L878.5 601C857 601 814 601 771.2 601C728.3 601 685.7 601 642.8 601C600 601 557 601 514.2 601C471.3 601 428.7 601 385.8 601C343 601 300 601 257.2 601C214.3 601 171.7 601 128.8 601C86 601 43 601 21.5 601L0 601Z" fill="#00e8ce"></path><path d="M0 449L21.5 458.2C43 467.3 86 485.7 128.8 488.7C171.7 491.7 214.3 479.3 257.2 471.8C300 464.3 343 461.7 385.8 468.5C428.7 475.3 471.3 491.7 514.2 488.8C557 486 600 464 642.8 464.5C685.7 465 728.3 488 771.2 500C814 512 857 513 878.5 513.5L900 514L900 601L878.5 601C857 601 814 601 771.2 601C728.3 601 685.7 601 642.8 601C600 601 557 601 514.2 601C471.3 601 428.7 601 385.8 601C343 601 300 601 257.2 601C214.3 601 171.7 601 128.8 601C86 601 43 601 21.5 601L0 601Z" fill="#00e1e3"></path><path d="M0 482L21.5 487.3C43 492.7 86 503.3 128.8 511C171.7 518.7 214.3 523.3 257.2 516.8C300 510.3 343 492.7 385.8 491.2C428.7 489.7 471.3 504.3 514.2 513.7C557 523 600 527 642.8 525.5C685.7 524 728.3 517 771.2 509.3C814 501.7 857 493.3 878.5 489.2L900 485L900 601L878.5 601C857 601 814 601 771.2 601C728.3 601 685.7 601 642.8 601C600 601 557 601 514.2 601C471.3 601 428.7 601 385.8 601C343 601 300 601 257.2 601C214.3 601 171.7 601 128.8 601C86 601 43 601 21.5 601L0 601Z" fill="#00d9f2"></path><path d="M0 524L21.5 527C43 530 86 536 128.8 533C171.7 530 214.3 518 257.2 514.2C300 510.3 343 514.7 385.8 518.8C428.7 523 471.3 527 514.2 526.2C557 525.3 600 519.7 642.8 517.8C685.7 516 728.3 518 771.2 520.7C814 523.3 857 526.7 878.5 528.3L900 530L900 601L878.5 601C857 601 814 601 771.2 601C728.3 601 685.7 601 642.8 601C600 601 557 601 514.2 601C471.3 601 428.7 601 385.8 601C343 601 300 601 257.2 601C214.3 601 171.7 601 128.8 601C86 601 43 601 21.5 601L0 601Z" fill="#00cffc"></path><path d="M0 566L21.5 565.5C43 565 86 564 128.8 563.8C171.7 563.7 214.3 564.3 257.2 562C300 559.7 343 554.3 385.8 551.3C428.7 548.3 471.3 547.7 514.2 553.2C557 558.7 600 570.3 642.8 575.2C685.7 580 728.3 578 771.2 571.5C814 565 857 554 878.5 548.5L900 543L900 601L878.5 601C857 601 814 601 771.2 601C728.3 601 685.7 601 642.8 601C600 601 557 601 514.2 601C471.3 601 428.7 601 385.8 601C343 601 300 601 257.2 601C214.3 601 171.7 601 128.8 601C86 601 43 601 21.5 601L0 601Z" fill="#25c4ff"></path></svg>