<svg id="visual" viewBox="0 0 960 540" width="960" height="540" xmlns="http://www.w3.org/2000/svg" xmlns:xlink="http://www.w3.org/1999/xlink" version="1.1"><rect x="0" y="0" width="960" height="540" fill="#ffffff"></rect><path d="M0 312L40 326.8C80 341.7 160 371.3 240 340.3C320 309.3 400 217.7 480 205.2C560 192.7 640 259.3 720 288.3C800 317.3 880 308.7 920 304.3L960 300L960 541L920 541C880 541 800 541 720 541C640 541 560 541 480 541C400 541 320 541 240 541C160 541 80 541 40 541L0 541Z" fill="#0052cd" stroke-linecap="round" stroke-linejoin="miter"></path></svg>