<svg id="visual" viewBox="0 0 900 600" width="900" height="600" xmlns="http://www.w3.org/2000/svg" xmlns:xlink="http://www.w3.org/1999/xlink" version="1.1"><rect x="0" y="0" width="900" height="600" fill="#000000"></rect><path d="M0 186L21.5 205.3C43 224.7 86 263.3 128.8 268.3C171.7 273.3 214.3 244.7 257.2 247C300 249.3 343 282.7 385.8 297.7C428.7 312.7 471.3 309.3 514.2 290.5C557 271.7 600 237.3 642.8 224C685.7 210.7 728.3 218.3 771.2 238.5C814 258.7 857 291.3 878.5 307.7L900 324L900 601L878.5 601C857 601 814 601 771.2 601C728.3 601 685.7 601 642.8 601C600 601 557 601 514.2 601C471.3 601 428.7 601 385.8 601C343 601 300 601 257.2 601C214.3 601 171.7 601 128.8 601C86 601 43 601 21.5 601L0 601Z" fill="#faf169"></path><path d="M0 225L21.5 245.5C43 266 86 307 128.8 310.7C171.7 314.3 214.3 280.7 257.2 259.5C300 238.3 343 229.7 385.8 241.7C428.7 253.7 471.3 286.3 514.2 308.7C557 331 600 343 642.8 330.5C685.7 318 728.3 281 771.2 262.3C814 243.7 857 243.3 878.5 243.2L900 243L900 601L878.5 601C857 601 814 601 771.2 601C728.3 601 685.7 601 642.8 601C600 601 557 601 514.2 601C471.3 601 428.7 601 385.8 601C343 601 300 601 257.2 601C214.3 601 171.7 601 128.8 601C86 601 43 601 21.5 601L0 601Z" fill="#d1f475"></path><path d="M0 324L21.5 316.8C43 309.7 86 295.3 128.8 287C171.7 278.7 214.3 276.3 257.2 281.5C300 286.7 343 299.3 385.8 318.5C428.7 337.7 471.3 363.3 514.2 377.5C557 391.7 600 394.3 642.8 387.3C685.7 380.3 728.3 363.7 771.2 358.5C814 353.3 857 359.7 878.5 362.8L900 366L900 601L878.5 601C857 601 814 601 771.2 601C728.3 601 685.7 601 642.8 601C600 601 557 601 514.2 601C471.3 601 428.7 601 385.8 601C343 601 300 601 257.2 601C214.3 601 171.7 601 128.8 601C86 601 43 601 21.5 601L0 601Z" fill="#a8f488"></path><path d="M0 298L21.5 302.3C43 306.7 86 315.3 128.8 332.5C171.7 349.7 214.3 375.3 257.2 377.5C300 379.7 343 358.3 385.8 350.5C428.7 342.7 471.3 348.3 514.2 351.3C557 354.3 600 354.7 642.8 360.7C685.7 366.7 728.3 378.3 771.2 386C814 393.7 857 397.3 878.5 399.2L900 401L900 601L878.5 601C857 601 814 601 771.2 601C728.3 601 685.7 601 642.8 601C600 601 557 601 514.2 601C471.3 601 428.7 601 385.8 601C343 601 300 601 257.2 601C214.3 601 171.7 601 128.8 601C86 601 43 601 21.5 601L0 601Z" fill="#7df29f"></path><path d="M0 442L21.5 428.8C43 415.7 86 389.3 128.8 372.3C171.7 355.3 214.3 347.7 257.2 360C300 372.3 343 404.7 385.8 414.7C428.7 424.7 471.3 412.3 514.2 398.5C557 384.7 600 369.3 642.8 372.5C685.7 375.7 728.3 397.3 771.2 409.8C814 422.3 857 425.7 878.5 427.3L900 429L900 601L878.5 601C857 601 814 601 771.2 601C728.3 601 685.7 601 642.8 601C600 601 557 601 514.2 601C471.3 601 428.7 601 385.8 601C343 601 300 601 257.2 601C214.3 601 171.7 601 128.8 601C86 601 43 601 21.5 601L0 601Z" fill="#49eeb7"></path><path d="M0 467L21.5 458.8C43 450.7 86 434.3 128.8 421.8C171.7 409.3 214.3 400.7 257.2 402C300 403.3 343 414.7 385.8 423.8C428.7 433 471.3 440 514.2 447.7C557 455.3 600 463.7 642.8 468C685.7 472.3 728.3 472.7 771.2 459C814 445.3 857 417.7 878.5 403.8L900 390L900 601L878.5 601C857 601 814 601 771.2 601C728.3 601 685.7 601 642.8 601C600 601 557 601 514.2 601C471.3 601 428.7 601 385.8 601C343 601 300 601 257.2 601C214.3 601 171.7 601 128.8 601C86 601 43 601 21.5 601L0 601Z" fill="#00e8ce"></path><path d="M0 490L21.5 485.2C43 480.3 86 470.7 128.8 471.7C171.7 472.7 214.3 484.3 257.2 486.8C300 489.3 343 482.7 385.8 473.2C428.7 463.7 471.3 451.3 514.2 442.7C557 434 600 429 642.8 427C685.7 425 728.3 426 771.2 429.8C814 433.7 857 440.3 878.5 443.7L900 447L900 601L878.5 601C857 601 814 601 771.2 601C728.3 601 685.7 601 642.8 601C600 601 557 601 514.2 601C471.3 601 428.7 601 385.8 601C343 601 300 601 257.2 601C214.3 601 171.7 601 128.8 601C86 601 43 601 21.5 601L0 601Z" fill="#00e1e3"></path><path d="M0 453L21.5 455.8C43 458.7 86 464.3 128.8 466.5C171.7 468.7 214.3 467.3 257.2 464.5C300 461.7 343 457.3 385.8 465.2C428.7 473 471.3 493 514.2 494.7C557 496.3 600 479.7 642.8 481C685.7 482.3 728.3 501.7 771.2 500C814 498.3 857 475.7 878.5 464.3L900 453L900 601L878.5 601C857 601 814 601 771.2 601C728.3 601 685.7 601 642.8 601C600 601 557 601 514.2 601C471.3 601 428.7 601 385.8 601C343 601 300 601 257.2 601C214.3 601 171.7 601 128.8 601C86 601 43 601 21.5 601L0 601Z" fill="#00d9f2"></path><path d="M0 515L21.5 514.7C43 514.3 86 513.7 128.8 520.2C171.7 526.7 214.3 540.3 257.2 545.3C300 550.3 343 546.7 385.8 536C428.7 525.3 471.3 507.7 514.2 506.3C557 505 600 520 642.8 526.2C685.7 532.3 728.3 529.7 771.2 531.2C814 532.7 857 538.3 878.5 541.2L900 544L900 601L878.5 601C857 601 814 601 771.2 601C728.3 601 685.7 601 642.8 601C600 601 557 601 514.2 601C471.3 601 428.7 601 385.8 601C343 601 300 601 257.2 601C214.3 601 171.7 601 128.8 601C86 601 43 601 21.5 601L0 601Z" fill="#00cffc"></path><path d="M0 559L21.5 561.2C43 563.3 86 567.7 128.8 567.2C171.7 566.7 214.3 561.3 257.2 554.5C300 547.7 343 539.3 385.8 539.5C428.7 539.7 471.3 548.3 514.2 549.8C557 551.3 600 545.7 642.8 548.5C685.7 551.3 728.3 562.7 771.2 561.8C814 561 857 548 878.5 541.5L900 535L900 601L878.5 601C857 601 814 601 771.2 601C728.3 601 685.7 601 642.8 601C600 601 557 601 514.2 601C471.3 601 428.7 601 385.8 601C343 601 300 601 257.2 601C214.3 601 171.7 601 128.8 601C86 601 43 601 21.5 601L0 601Z" fill="#25c4ff"></path></svg>