<?xml version="1.0" standalone="no"?><svg xmlns="http://www.w3.org/2000/svg" viewBox="0 0 1440 320"><path fill="#ffd700" fill-opacity="1" d="M0,128L9.2,160C18.5,192,37,256,55,288C73.8,320,92,320,111,282.7C129.2,245,148,171,166,149.3C184.6,128,203,160,222,186.7C240,213,258,235,277,218.7C295.4,203,314,149,332,122.7C350.8,96,369,96,388,112C406.2,128,425,160,443,170.7C461.5,181,480,171,498,160C516.9,149,535,139,554,112C572.3,85,591,43,609,69.3C627.7,96,646,192,665,240C683.1,288,702,288,720,245.3C738.5,203,757,117,775,96C793.8,75,812,117,831,133.3C849.2,149,868,139,886,138.7C904.6,139,923,149,942,176C960,203,978,245,997,250.7C1015.4,256,1034,224,1052,186.7C1070.8,149,1089,107,1108,80C1126.2,53,1145,43,1163,69.3C1181.5,96,1200,160,1218,192C1236.9,224,1255,224,1274,197.3C1292.3,171,1311,117,1329,96C1347.7,75,1366,85,1385,80C1403.1,75,1422,53,1431,42.7L1440,32L1440,0L1430.8,0C1421.5,0,1403,0,1385,0C1366.2,0,1348,0,1329,0C1310.8,0,1292,0,1274,0C1255.4,0,1237,0,1218,0C1200,0,1182,0,1163,0C1144.6,0,1126,0,1108,0C1089.2,0,1071,0,1052,0C1033.8,0,1015,0,997,0C978.5,0,960,0,942,0C923.1,0,905,0,886,0C867.7,0,849,0,831,0C812.3,0,794,0,775,0C756.9,0,738,0,720,0C701.5,0,683,0,665,0C646.2,0,628,0,609,0C590.8,0,572,0,554,0C535.4,0,517,0,498,0C480,0,462,0,443,0C424.6,0,406,0,388,0C369.2,0,351,0,332,0C313.8,0,295,0,277,0C258.5,0,240,0,222,0C203.1,0,185,0,166,0C147.7,0,129,0,111,0C92.3,0,74,0,55,0C36.9,0,18,0,9,0L0,0Z"></path></svg>